<svg width="48" height="48" viewBox="0 0 48 48" fill="none" xmlns="http://www.w3.org/2000/svg">
<path d="M24 12C30.6274 12 36 17.3726 36 24C36 30.6274 30.6274 36 24 36C17.3726 36 12 30.6274 12 24C12 17.3726 17.3726 12 24 12Z" fill="#F8F9FA"/>
<path d="M24 12C30.6274 12 36 17.3726 36 24C36 30.6274 30.6274 36 24 36C17.3726 36 12 30.6274 12 24C12 17.3726 17.3726 12 24 12Z" stroke="#E5E7EB"/>
<path d="M29.6473 19.8075C29.864 20.0124 29.9905 20.295 29.999 20.5932C30.0074 20.8913 29.8971 21.1807 29.6923 21.3975L23.3173 28.1475C23.2139 28.2567 23.0898 28.3441 22.9521 28.4045C22.8145 28.4649 22.6661 28.4971 22.5158 28.4992C22.3655 28.5013 22.2162 28.4733 22.0769 28.4167C21.9376 28.3602 21.8111 28.2763 21.7048 28.17L18.3298 24.795C18.131 24.5817 18.0229 24.2997 18.028 24.0082C18.0331 23.7168 18.1512 23.4387 18.3573 23.2326C18.5635 23.0264 18.8415 22.9084 19.133 22.9032C19.4244 22.8981 19.7065 23.0063 19.9198 23.205L22.4773 25.761L28.0573 19.8525C28.2622 19.6357 28.5448 19.5092 28.843 19.5008C29.1411 19.4924 29.4304 19.6027 29.6473 19.8075Z" fill="#00B232"/>
</svg>
