<svg width="28" height="16" viewBox="0 0 28 16" fill="none" xmlns="http://www.w3.org/2000/svg">
<path d="M21.875 8.88911H6.125C5.635 8.88911 5.25 8.49799 5.25 8.00022C5.25 7.50244 5.635 7.11133 6.125 7.11133H21.875C22.365 7.11133 22.75 7.50244 22.75 8.00022C22.75 8.49799 22.365 8.88911 21.875 8.88911Z" fill="#F2F2F7"/>
<path d="M17.5 15.1113C17.3852 15.1127 17.2715 15.0897 17.166 15.0438C17.0605 14.9979 16.9656 14.93 16.8875 14.8446C16.5375 14.4891 16.5375 13.938 16.8875 13.5824L22.4 7.9824L16.8875 2.3824C16.5375 2.02685 16.5375 1.47574 16.8875 1.12018C17.2375 0.764627 17.78 0.764627 18.13 1.12018L24.255 7.3424C24.605 7.69796 24.605 8.24907 24.255 8.60463L18.13 14.8268C17.955 15.0046 17.7275 15.0935 17.5175 15.0935L17.5 15.1113Z" fill="#F2F2F7"/>
</svg>
