<svg width="48" height="48" viewBox="0 0 48 48" fill="none" xmlns="http://www.w3.org/2000/svg">
<path d="M24 12C30.6274 12 36 17.3726 36 24C36 30.6274 30.6274 36 24 36C17.3726 36 12 30.6274 12 24C12 17.3726 17.3726 12 24 12Z" fill="#1C1C1E"/>
<path d="M24 12C30.6274 12 36 17.3726 36 24C36 30.6274 30.6274 36 24 36C17.3726 36 12 30.6274 12 24C12 17.3726 17.3726 12 24 12Z" stroke="#E5E7EB"/>
<path d="M21.2464 29H19.2776L22.8621 18.8182H25.1391L28.7286 29H26.7599L24.0404 20.9062H23.9608L21.2464 29ZM21.311 25.0078H26.6803V26.4893H21.311V25.0078Z" fill="#F8F9FA"/>
</svg>
