<svg width="48" height="48" viewBox="0 0 48 48" fill="none" xmlns="http://www.w3.org/2000/svg">
<path d="M24 12C30.6274 12 36 17.3726 36 24C36 30.6274 30.6274 36 24 36C17.3726 36 12 30.6274 12 24C12 17.3726 17.3726 12 24 12Z" fill="#1C1C1E"/>
<path d="M24 12C30.6274 12 36 17.3726 36 24C36 30.6274 30.6274 36 24 36C17.3726 36 12 30.6274 12 24C12 17.3726 17.3726 12 24 12Z" stroke="#E5E7EB"/>
<path d="M24.3823 29H20.932V18.8182H24.4519C25.4628 18.8182 26.3311 19.022 27.057 19.4297C27.7862 19.834 28.3463 20.4157 28.7374 21.1747C29.1285 21.9337 29.324 22.8419 29.324 23.8991C29.324 24.9598 29.1268 25.8712 28.7324 26.6335C28.3413 27.3958 27.7762 27.9808 27.0371 28.3885C26.3013 28.7962 25.4164 29 24.3823 29ZM22.7765 27.4041H24.2928C25.0021 27.4041 25.5937 27.2749 26.0676 27.0163C26.5416 26.7545 26.8979 26.3651 27.1365 25.848C27.3752 25.3277 27.4945 24.678 27.4945 23.8991C27.4945 23.1203 27.3752 22.474 27.1365 21.9602C26.8979 21.4432 26.5449 21.0571 26.0776 20.8018C25.6136 20.5433 25.0369 20.4141 24.3475 20.4141H22.7765V27.4041Z" fill="#F8F9FA"/>
</svg>
