<svg width="24" height="24" viewBox="0 0 24 24" fill="none" xmlns="http://www.w3.org/2000/svg">
<path d="M3.29294 10.707C3.6834 10.3165 3.6834 9.68346 3.29294 9.293C2.90247 9.68346 2.90247 10.3165 3.29294 10.707ZM20.9999 18C20.9999 18.2652 20.8946 18.5196 20.707 18.7071C20.5195 18.8946 20.2652 19 19.9999 19C19.7347 19 19.4804 18.8946 19.2928 18.7071C19.1053 18.5196 18.9999 18.2652 18.9999 18H20.9999ZM8.99994 15C8.60947 15.3905 7.9764 15.3905 7.58594 15L3.29294 10.707V9.293H4.29272C4.55794 9.293 4.81229 9.39836 4.99983 9.58589L8.99994 13.586C9.3904 13.9765 9.3904 14.6095 8.99994 15ZM3.29294 9.293L7.58594 5C7.9764 4.60953 8.60947 4.60953 8.99994 5C9.3904 5.39046 9.3904 6.02353 8.99994 6.414L4.99983 10.4141C4.81229 10.6016 4.55794 10.707 4.29272 10.707H3.29294V9.293ZM3.29294 9.293L13.9999 9V11L3.29294 10.707V9.293ZM20.9999 16V18H18.9999V16H20.9999ZM13.9999 9C15.8565 9 17.6369 9.7375 18.9497 11.0503C20.2624 12.363 20.9999 14.1435 20.9999 16H18.9999C18.9999 14.6739 18.4732 13.4021 17.5355 12.4645C16.5978 11.5268 15.326 11 13.9999 11V9Z" fill="#F8F9FA"/>
</svg>
