<svg width="240" height="48" viewBox="0 0 240 48" fill="none" xmlns="http://www.w3.org/2000/svg">
<path d="M23.9994 30.7656L18.1825 34.19C17.9256 34.3498 17.6569 34.4182 17.3766 34.3954C17.0962 34.3726 16.851 34.2813 16.6407 34.1215C16.4305 33.9617 16.2669 33.7621 16.1501 33.5229C16.0333 33.2836 16.01 33.0152 16.08 32.7175L17.6219 26.2454L12.4708 21.8964C12.2372 21.691 12.0914 21.4568 12.0335 21.1938C11.9755 20.9308 11.9928 20.6742 12.0853 20.424C12.1778 20.1738 12.318 19.9683 12.5058 19.8076C12.6936 19.6469 12.9506 19.5441 13.2767 19.4994L20.0748 18.9172L22.7029 12.8219C22.8197 12.5479 23.001 12.3424 23.2467 12.2055C23.4925 12.0685 23.7434 12 23.9994 12C24.2554 12 24.5063 12.0685 24.7521 12.2055C24.9978 12.3424 25.1791 12.5479 25.2959 12.8219L27.924 18.9172L34.7221 19.4994C35.0491 19.545 35.3061 19.6478 35.493 19.8076C35.6799 19.9674 35.82 20.1728 35.9135 20.424C36.0069 20.6751 36.0247 20.9321 35.9667 21.1951C35.9088 21.4581 35.7626 21.6919 35.528 21.8964L30.3769 26.2454L31.9188 32.7175C31.9888 33.0143 31.9655 33.2827 31.8487 33.5229C31.7319 33.7631 31.5683 33.9626 31.3581 34.1215C31.1479 34.2804 30.9026 34.3717 30.6222 34.3954C30.3419 34.4192 30.0732 34.3507 29.8163 34.19L23.9994 30.7656Z" fill="#F2BD00"/>
<path d="M71.9994 30.7656L66.1825 34.19C65.9256 34.3498 65.6569 34.4182 65.3766 34.3954C65.0962 34.3726 64.851 34.2813 64.6407 34.1215C64.4305 33.9617 64.2669 33.7621 64.1501 33.5229C64.0333 33.2836 64.01 33.0152 64.08 32.7175L65.6219 26.2454L60.4708 21.8964C60.2372 21.691 60.0914 21.4568 60.0335 21.1938C59.9755 20.9308 59.9928 20.6742 60.0853 20.424C60.1778 20.1738 60.318 19.9683 60.5058 19.8076C60.6936 19.6469 60.9506 19.5441 61.2767 19.4994L68.0748 18.9172L70.7029 12.8219C70.8197 12.5479 71.001 12.3424 71.2467 12.2055C71.4925 12.0685 71.7434 12 71.9994 12C72.2554 12 72.5063 12.0685 72.7521 12.2055C72.9978 12.3424 73.1791 12.5479 73.2959 12.8219L75.924 18.9172L82.7221 19.4994C83.0491 19.545 83.3061 19.6478 83.493 19.8076C83.6799 19.9674 83.82 20.1728 83.9135 20.424C84.0069 20.6751 84.0247 20.9321 83.9667 21.1951C83.9088 21.4581 83.7626 21.6919 83.528 21.8964L78.3769 26.2454L79.9188 32.7175C79.9888 33.0143 79.9655 33.2827 79.8487 33.5229C79.7319 33.7631 79.5683 33.9626 79.3581 34.1215C79.1479 34.2804 78.9026 34.3717 78.6222 34.3954C78.3419 34.4192 78.0732 34.3507 77.8163 34.19L71.9994 30.7656Z" fill="#F2BD00"/>
<path d="M119.999 30.7656L114.183 34.19C113.926 34.3498 113.657 34.4182 113.377 34.3954C113.096 34.3726 112.851 34.2813 112.641 34.1215C112.43 33.9617 112.267 33.7621 112.15 33.5229C112.033 33.2836 112.01 33.0152 112.08 32.7175L113.622 26.2454L108.471 21.8964C108.237 21.691 108.091 21.4568 108.033 21.1938C107.976 20.9308 107.993 20.6742 108.085 20.424C108.178 20.1738 108.318 19.9683 108.506 19.8076C108.694 19.6469 108.951 19.5441 109.277 19.4994L116.075 18.9172L118.703 12.8219C118.82 12.5479 119.001 12.3424 119.247 12.2055C119.492 12.0685 119.743 12 119.999 12C120.255 12 120.506 12.0685 120.752 12.2055C120.998 12.3424 121.179 12.5479 121.296 12.8219L123.924 18.9172L130.722 19.4994C131.049 19.545 131.306 19.6478 131.493 19.8076C131.68 19.9674 131.82 20.1728 131.913 20.424C132.007 20.6751 132.025 20.9321 131.967 21.1951C131.909 21.4581 131.763 21.6919 131.528 21.8964L126.377 26.2454L127.919 32.7175C127.989 33.0143 127.965 33.2827 127.849 33.5229C127.732 33.7631 127.568 33.9626 127.358 34.1215C127.148 34.2804 126.903 34.3717 126.622 34.3954C126.342 34.4192 126.073 34.3507 125.816 34.19L119.999 30.7656Z" fill="#F2BD00"/>
<path d="M167.999 30.7656L162.183 34.19C161.926 34.3498 161.657 34.4182 161.377 34.3954C161.096 34.3726 160.851 34.2813 160.641 34.1215C160.43 33.9617 160.267 33.7621 160.15 33.5229C160.033 33.2836 160.01 33.0152 160.08 32.7175L161.622 26.2454L156.471 21.8964C156.237 21.691 156.091 21.4568 156.033 21.1938C155.976 20.9308 155.993 20.6742 156.085 20.424C156.178 20.1738 156.318 19.9683 156.506 19.8076C156.694 19.6469 156.951 19.5441 157.277 19.4994L164.075 18.9172L166.703 12.8219C166.82 12.5479 167.001 12.3424 167.247 12.2055C167.492 12.0685 167.743 12 167.999 12C168.255 12 168.506 12.0685 168.752 12.2055C168.998 12.3424 169.179 12.5479 169.296 12.8219L171.924 18.9172L178.722 19.4994C179.049 19.545 179.306 19.6478 179.493 19.8076C179.68 19.9674 179.82 20.1728 179.913 20.424C180.007 20.6751 180.025 20.9321 179.967 21.1951C179.909 21.4581 179.763 21.6919 179.528 21.8964L174.377 26.2454L175.919 32.7175C175.989 33.0143 175.965 33.2827 175.849 33.5229C175.732 33.7631 175.568 33.9626 175.358 34.1215C175.148 34.2804 174.903 34.3717 174.622 34.3954C174.342 34.4192 174.073 34.3507 173.816 34.19L167.999 30.7656Z" fill="#F2BD00"/>
<path d="M215.999 30.7656L210.183 34.19C209.926 34.3498 209.657 34.4182 209.377 34.3954C209.096 34.3726 208.851 34.2813 208.641 34.1215C208.43 33.9617 208.267 33.7621 208.15 33.5229C208.033 33.2836 208.01 33.0152 208.08 32.7175L209.622 26.2454L204.471 21.8964C204.237 21.691 204.091 21.4568 204.033 21.1938C203.976 20.9308 203.993 20.6742 204.085 20.424C204.178 20.1738 204.318 19.9683 204.506 19.8076C204.694 19.6469 204.951 19.5441 205.277 19.4994L212.075 18.9172L214.703 12.8219C214.82 12.5479 215.001 12.3424 215.247 12.2055C215.492 12.0685 215.743 12 215.999 12C216.255 12 216.506 12.0685 216.752 12.2055C216.998 12.3424 217.179 12.5479 217.296 12.8219L219.924 18.9172L226.722 19.4994C227.049 19.545 227.306 19.6478 227.493 19.8076C227.68 19.9674 227.82 20.1728 227.913 20.424C228.007 20.6751 228.025 20.9321 227.967 21.1951C227.909 21.4581 227.763 21.6919 227.528 21.8964L222.377 26.2454L223.919 32.7175C223.989 33.0143 223.965 33.2827 223.849 33.5229C223.732 33.7631 223.568 33.9626 223.358 34.1215C223.148 34.2804 222.903 34.3717 222.622 34.3954C222.342 34.4192 222.073 34.3507 221.816 34.19L215.999 30.7656Z" fill="#F2BD00"/>
</svg>
