<svg width="48" height="48" viewBox="0 0 48 48" fill="none" xmlns="http://www.w3.org/2000/svg">
<path d="M24 12C30.6274 12 36 17.3726 36 24C36 30.6274 30.6274 36 24 36C17.3726 36 12 30.6274 12 24C12 17.3726 17.3726 12 24 12Z" fill="#1C1C1E"/>
<path d="M24 12C30.6274 12 36 17.3726 36 24C36 30.6274 30.6274 36 24 36C17.3726 36 12 30.6274 12 24C12 17.3726 17.3726 12 24 12Z" stroke="#E5E7EB"/>
<path d="M21.4037 29V18.8182H25.3014C26.0372 18.8182 26.6487 18.9342 27.1359 19.1662C27.6265 19.3949 27.9927 19.7081 28.2346 20.1058C28.4799 20.5036 28.6025 20.9543 28.6025 21.4581C28.6025 21.8724 28.523 22.227 28.3639 22.522C28.2048 22.8137 27.991 23.0507 27.7226 23.233C27.4541 23.4152 27.1541 23.5462 26.8227 23.6257V23.7251C27.184 23.745 27.5303 23.8561 27.8618 24.0582C28.1965 24.2571 28.47 24.5388 28.6821 24.9034C28.8942 25.268 29.0003 25.7088 29.0003 26.2259C29.0003 26.7528 28.8727 27.2268 28.6175 27.6477C28.3622 28.0653 27.9778 28.3951 27.464 28.6371C26.9503 28.879 26.304 29 25.5251 29H21.4037ZM23.2481 27.4588H25.2318C25.9013 27.4588 26.3836 27.3312 26.6785 27.076C26.9768 26.8175 27.126 26.486 27.126 26.0817C27.126 25.7801 27.0514 25.5083 26.9023 25.2663C26.7531 25.0211 26.541 24.8288 26.2659 24.6896C25.9908 24.5471 25.6627 24.4759 25.2815 24.4759H23.2481V27.4588ZM23.2481 23.1484H25.0727C25.3909 23.1484 25.6776 23.0904 25.9328 22.9744C26.188 22.8551 26.3885 22.6877 26.5344 22.4723C26.6835 22.2536 26.7581 21.995 26.7581 21.6967C26.7581 21.3023 26.6189 20.9775 26.3405 20.7223C26.0654 20.4671 25.656 20.3395 25.1125 20.3395H23.2481V23.1484Z" fill="#F8F9FA"/>
</svg>
