<svg width="48" height="48" viewBox="0 0 48 48" fill="none" xmlns="http://www.w3.org/2000/svg">
<path d="M24 12C30.6274 12 36 17.3726 36 24C36 30.6274 30.6274 36 24 36C17.3726 36 12 30.6274 12 24C12 17.3726 17.3726 12 24 12Z" fill="#1C1C1E"/>
<path d="M24 12C30.6274 12 36 17.3726 36 24C36 30.6274 30.6274 36 24 36C17.3726 36 12 30.6274 12 24C12 17.3726 17.3726 12 24 12Z" stroke="#E5E7EB"/>
<path d="M28.5173 22.2536H26.6579C26.6049 21.9486 26.5071 21.6785 26.3646 21.4432C26.2221 21.2045 26.0448 21.0024 25.8327 20.8366C25.6205 20.6709 25.3786 20.5466 25.1068 20.4638C24.8383 20.3776 24.5483 20.3345 24.2368 20.3345C23.6833 20.3345 23.1927 20.4737 22.7652 20.7521C22.3376 21.0272 22.0029 21.4316 21.7609 21.9652C21.519 22.4955 21.398 23.1435 21.398 23.9091C21.398 24.688 21.519 25.3442 21.7609 25.8778C22.0062 26.4081 22.3409 26.8092 22.7652 27.081C23.1927 27.3494 23.6816 27.4837 24.2318 27.4837C24.5367 27.4837 24.8218 27.4439 25.0869 27.3643C25.3554 27.2815 25.5957 27.1605 25.8078 27.0014C26.0232 26.8423 26.2039 26.6468 26.3497 26.4148C26.4988 26.1828 26.6016 25.9176 26.6579 25.6193L28.5173 25.6293C28.4477 26.1132 28.2969 26.5672 28.0649 26.9915C27.8362 27.4157 27.5363 27.7902 27.165 28.1151C26.7938 28.4366 26.3596 28.6884 25.8625 28.8707C25.3653 29.0497 24.8135 29.1392 24.2069 29.1392C23.3121 29.1392 22.5133 28.9321 21.8106 28.5178C21.108 28.1035 20.5545 27.5052 20.1501 26.723C19.7458 25.9408 19.5436 25.0028 19.5436 23.9091C19.5436 22.812 19.7474 21.8741 20.1551 21.0952C20.5628 20.313 21.1179 19.7147 21.8206 19.3004C22.5232 18.8861 23.3187 18.679 24.2069 18.679C24.7737 18.679 25.3007 18.7585 25.7879 18.9176C26.2751 19.0767 26.7093 19.3104 27.0905 19.6186C27.4716 19.9235 27.7848 20.2981 28.0301 20.7422C28.2787 21.183 28.4411 21.6868 28.5173 22.2536Z" fill="#F8F9FA"/>
</svg>
