<svg width="48" height="48" viewBox="0 0 48 48" fill="none" xmlns="http://www.w3.org/2000/svg">
<path d="M31.875 24.8891H16.125C15.635 24.8891 15.25 24.498 15.25 24.0002C15.25 23.5024 15.635 23.1113 16.125 23.1113H31.875C32.365 23.1113 32.75 23.5024 32.75 24.0002C32.75 24.498 32.365 24.8891 31.875 24.8891Z" fill="#1C1C1E"/>
<path d="M27.5 31.1113C27.3852 31.1127 27.2715 31.0897 27.166 31.0438C27.0605 30.9979 26.9656 30.93 26.8875 30.8446C26.5375 30.4891 26.5375 29.938 26.8875 29.5824L32.4 23.9824L26.8875 18.3824C26.5375 18.0268 26.5375 17.4757 26.8875 17.1202C27.2375 16.7646 27.78 16.7646 28.13 17.1202L34.255 23.3424C34.605 23.698 34.605 24.2491 34.255 24.6046L28.13 30.8268C27.955 31.0046 27.7275 31.0935 27.5175 31.0935L27.5 31.1113Z" fill="#1C1C1E"/>
</svg>
