<svg width="44" height="44" viewBox="0 0 44 44" fill="none" xmlns="http://www.w3.org/2000/svg">
<g clip-path="url(#clip0_0_3)">
<path d="M22 0C34.1503 0 44 9.84974 44 22C44 34.1503 34.1503 44 22 44C9.84974 44 0 34.1503 0 22C0 9.84974 9.84974 0 22 0Z" fill="#EC00AA"/>
<path d="M22 0C34.1503 0 44 9.84974 44 22C44 34.1503 34.1503 44 22 44C9.84974 44 0 34.1503 0 22C0 9.84974 9.84974 0 22 0Z" stroke="#EC00AA"/>
<path d="M27.625 22C27.625 23.3008 27.5547 24.5547 27.4316 25.75H16.5684C16.4395 24.5547 16.375 23.3008 16.375 22C16.375 20.6992 16.4453 19.4453 16.5684 18.25H27.4316C27.5605 19.4453 27.625 20.6992 27.625 22ZM29.3125 18.25H36.5254C36.8359 19.4512 37 20.7051 37 22C37 23.2949 36.8359 24.5488 36.5254 25.75H29.3125C29.4355 24.543 29.5 23.2891 29.5 22C29.5 20.7109 29.4355 19.457 29.3125 18.25ZM35.9102 16.375H29.0723C28.4863 12.6309 27.3262 9.49609 25.832 7.49219C30.4199 8.70508 34.1523 12.0332 35.9043 16.375H35.9102ZM27.1738 16.375H16.8262C17.1836 14.2422 17.7344 12.3555 18.4082 10.8262C19.0234 9.44336 19.709 8.44141 20.3711 7.80859C21.0273 7.1875 21.5723 7 22 7C22.4277 7 22.9727 7.1875 23.6289 7.80859C24.291 8.44141 24.9766 9.44336 25.5918 10.8262C26.2715 12.3496 26.8164 14.2363 27.1738 16.375ZM14.9277 16.375H8.08984C9.84766 12.0332 13.5742 8.70508 18.168 7.49219C16.6738 9.49609 15.5137 12.6309 14.9277 16.375ZM7.47461 18.25H14.6875C14.5645 19.457 14.5 20.7109 14.5 22C14.5 23.2891 14.5645 24.543 14.6875 25.75H7.47461C7.16406 24.5488 7 23.2949 7 22C7 20.7051 7.16406 19.4512 7.47461 18.25ZM18.4082 33.168C17.7285 31.6445 17.1836 29.7578 16.8262 27.625H27.1738C26.8164 29.7578 26.2656 31.6445 25.5918 33.168C24.9766 34.5508 24.291 35.5527 23.6289 36.1855C22.9727 36.8125 22.4277 37 22 37C21.5723 37 21.0273 36.8125 20.3711 36.1914C19.709 35.5586 19.0234 34.5566 18.4082 33.1738V33.168ZM14.9277 27.625C15.5137 31.3691 16.6738 34.5039 18.168 36.5078C13.5742 35.2949 9.84766 31.9668 8.08984 27.625H14.9277ZM35.9102 27.625C34.1523 31.9668 30.4258 35.2949 25.8379 36.5078C27.332 34.5039 28.4863 31.3691 29.0781 27.625H35.9102Z" fill="white"/>
</g>
<defs>
<clipPath id="clip0_0_3">
<rect width="44" height="44" fill="white"/>
</clipPath>
</defs>
</svg>
